<svg xmlns="http://www.w3.org/2000/svg" viewBox="0 0 64 64" width="64" height="64">
  <defs>
    <linearGradient id="bg" x1="0%" y1="0%" x2="100%" y2="100%">
      <stop offset="0%" style="stop-color:#10B981"/>
      <stop offset="100%" style="stop-color:#059669"/>
    </linearGradient>
  </defs>
  <circle cx="32" cy="32" r="30" fill="url(#bg)"/>
  <circle cx="32" cy="28" r="14" fill="#fff" stroke="#1E2535" stroke-width="1.5"/>
  <polygon points="32,20 35,24 34,28 30,28 29,24" fill="#1E2535"/>
  <polygon points="32,14 34,17 32,20 30,17" fill="#1E2535"/>
  <polygon points="40,22 42,25 40,28 37,27 36,24" fill="#1E2535"/>
  <polygon points="24,22 26,19 28,24 27,27 24,28" fill="#1E2535"/>
  <path d="M27,44 L29,38 Q28,34 32,31 Q36,34 35,38 L37,44 Z" fill="#F59E0B"/>
  <rect x="28" y="44" width="8" height="3" rx="1" fill="#F59E0B"/>
</svg>
